<svg width="1353" height="461" viewBox="0 0 1353 461" fill="none" xmlns="http://www.w3.org/2000/svg">
<g filter="url(#filter0_d)">
<rect x="48" width="1301" height="453" rx="5" fill="white"/>
</g>
<ellipse cx="53.7065" cy="71.2983" rx="10.1655" ry="12.2928" fill="url(#paint0_linear)"/>
<ellipse cx="53.7065" cy="34.4199" rx="10.1655" ry="12.2928" fill="url(#paint1_linear)"/>
<ellipse cx="53.7065" cy="108.177" rx="10.1655" ry="12.2928" fill="url(#paint2_linear)"/>
<ellipse cx="53.7065" cy="145.055" rx="10.1655" ry="12.2928" fill="url(#paint3_linear)"/>
<ellipse cx="53.7065" cy="181.934" rx="10.1655" ry="12.2928" fill="url(#paint4_linear)"/>
<ellipse cx="53.7065" cy="218.812" rx="10.1655" ry="12.2928" fill="url(#paint5_linear)"/>
<ellipse cx="53.7065" cy="255.691" rx="10.1655" ry="12.2928" fill="url(#paint6_linear)"/>
<ellipse cx="53.7065" cy="292.569" rx="10.1655" ry="12.2928" fill="url(#paint7_linear)"/>
<ellipse cx="53.7065" cy="329.447" rx="10.1655" ry="12.2928" fill="url(#paint8_linear)"/>
<ellipse cx="53.7065" cy="366.326" rx="10.1655" ry="12.2928" fill="url(#paint9_linear)"/>
<path d="M55.8968 66.4767C-14.132 65.2468 -7.35463 76.3092 33.3081 76.3088" stroke="url(#paint10_linear)" stroke-width="4" stroke-linecap="square"/>
<path d="M54.8363 76.31C-13.7917 75.0917 -7.14992 86.0501 32.6995 86.0497" stroke="url(#paint11_linear)" stroke-width="4" stroke-linecap="square"/>
<path d="M55.8968 29.5983C-14.132 28.3684 -7.35463 39.4308 33.3081 39.4304" stroke="url(#paint12_linear)" stroke-width="4" stroke-linecap="square"/>
<path d="M54.8363 39.4316C-13.7917 38.2133 -7.14992 49.1717 32.6995 49.1713" stroke="url(#paint13_linear)" stroke-width="4" stroke-linecap="square"/>
<path d="M55.8968 103.355C-14.132 102.125 -7.35463 113.188 33.3081 113.187" stroke="url(#paint14_linear)" stroke-width="4" stroke-linecap="square"/>
<path d="M54.8363 113.188C-13.7917 111.97 -7.14992 122.929 32.6995 122.928" stroke="url(#paint15_linear)" stroke-width="4" stroke-linecap="square"/>
<path d="M55.8968 140.234C-14.132 139.004 -7.35463 150.066 33.3081 150.066" stroke="url(#paint16_linear)" stroke-width="4" stroke-linecap="square"/>
<path d="M54.8363 150.067C-13.7917 148.849 -7.14992 159.807 32.6995 159.807" stroke="url(#paint17_linear)" stroke-width="4" stroke-linecap="square"/>
<path d="M55.8968 177.112C-14.132 175.882 -7.35463 186.945 33.3081 186.944" stroke="url(#paint18_linear)" stroke-width="4" stroke-linecap="square"/>
<path d="M54.8363 186.945C-13.7917 185.727 -7.14992 196.686 32.6995 196.685" stroke="url(#paint19_linear)" stroke-width="4" stroke-linecap="square"/>
<path d="M55.8968 213.99C-14.132 212.761 -7.35463 223.823 33.3081 223.823" stroke="url(#paint20_linear)" stroke-width="4" stroke-linecap="square"/>
<path d="M54.8363 223.824C-13.7917 222.606 -7.14992 233.564 32.6995 233.564" stroke="url(#paint21_linear)" stroke-width="4" stroke-linecap="square"/>
<path d="M55.8968 250.869C-14.132 249.639 -7.35463 260.701 33.3081 260.701" stroke="url(#paint22_linear)" stroke-width="4" stroke-linecap="square"/>
<path d="M54.8363 260.702C-13.7917 259.484 -7.14992 270.442 32.6995 270.442" stroke="url(#paint23_linear)" stroke-width="4" stroke-linecap="square"/>
<path d="M55.8968 287.747C-14.132 286.518 -7.35463 297.58 33.3081 297.58" stroke="url(#paint24_linear)" stroke-width="4" stroke-linecap="square"/>
<path d="M54.8363 297.581C-13.7917 296.362 -7.14992 307.321 32.6995 307.32" stroke="url(#paint25_linear)" stroke-width="4" stroke-linecap="square"/>
<path d="M55.8968 324.626C-14.132 323.396 -7.35463 334.458 33.3081 334.458" stroke="url(#paint26_linear)" stroke-width="4" stroke-linecap="square"/>
<path d="M54.8363 334.459C-13.7917 333.241 -7.14992 344.199 32.6995 344.199" stroke="url(#paint27_linear)" stroke-width="4" stroke-linecap="square"/>
<path d="M55.8968 361.504C-14.132 360.274 -7.35463 371.337 33.3081 371.336" stroke="url(#paint28_linear)" stroke-width="4" stroke-linecap="square"/>
<path d="M54.8363 371.338C-13.7917 370.119 -7.14992 381.078 32.6995 381.077" stroke="url(#paint29_linear)" stroke-width="4" stroke-linecap="square"/>
<ellipse cx="53.7065" cy="403.204" rx="10.1655" ry="12.2928" fill="url(#paint30_linear)"/>
<path d="M55.8968 398.383C-14.132 397.153 -7.35463 408.215 33.3081 408.215" stroke="url(#paint31_linear)" stroke-width="4" stroke-linecap="square"/>
<path d="M54.8363 408.216C-13.7917 406.998 -7.14992 417.956 32.6995 417.956" stroke="url(#paint32_linear)" stroke-width="4" stroke-linecap="square"/>
<ellipse cx="53.7065" cy="440.293" rx="10.1655" ry="12.2928" fill="url(#paint33_linear)"/>
<path d="M55.8968 435.471C-14.132 434.241 -7.35463 445.304 33.3081 445.303" stroke="url(#paint34_linear)" stroke-width="4" stroke-linecap="square"/>
<path d="M54.8363 445.305C-13.7917 444.086 -7.14992 455.045 32.6995 455.044" stroke="url(#paint35_linear)" stroke-width="4" stroke-linecap="square"/>
<defs>
<filter id="filter0_d" x="44" y="0" width="1309" height="461" filterUnits="userSpaceOnUse" color-interpolation-filters="sRGB">
<feFlood flood-opacity="0" result="BackgroundImageFix"/>
<feColorMatrix in="SourceAlpha" type="matrix" values="0 0 0 0 0 0 0 0 0 0 0 0 0 0 0 0 0 0 127 0"/>
<feOffset dy="4"/>
<feGaussianBlur stdDeviation="2"/>
<feColorMatrix type="matrix" values="0 0 0 0 0 0 0 0 0 0 0 0 0 0 0 0 0 0 0.25 0"/>
<feBlend mode="normal" in2="BackgroundImageFix" result="effect1_dropShadow"/>
<feBlend mode="normal" in="SourceGraphic" in2="effect1_dropShadow" result="shape"/>
</filter>
<linearGradient id="paint0_linear" x1="63.872" y1="72.8349" x2="44.64" y2="72.0033" gradientUnits="userSpaceOnUse">
<stop/>
<stop offset="1" stop-color="#202020"/>
</linearGradient>
<linearGradient id="paint1_linear" x1="63.872" y1="35.9565" x2="44.64" y2="35.1249" gradientUnits="userSpaceOnUse">
<stop/>
<stop offset="1" stop-color="#202020"/>
</linearGradient>
<linearGradient id="paint2_linear" x1="63.872" y1="109.713" x2="44.64" y2="108.882" gradientUnits="userSpaceOnUse">
<stop/>
<stop offset="1" stop-color="#202020"/>
</linearGradient>
<linearGradient id="paint3_linear" x1="63.872" y1="146.592" x2="44.64" y2="145.76" gradientUnits="userSpaceOnUse">
<stop/>
<stop offset="1" stop-color="#202020"/>
</linearGradient>
<linearGradient id="paint4_linear" x1="63.872" y1="183.47" x2="44.64" y2="182.639" gradientUnits="userSpaceOnUse">
<stop/>
<stop offset="1" stop-color="#202020"/>
</linearGradient>
<linearGradient id="paint5_linear" x1="63.872" y1="220.349" x2="44.64" y2="219.517" gradientUnits="userSpaceOnUse">
<stop/>
<stop offset="1" stop-color="#202020"/>
</linearGradient>
<linearGradient id="paint6_linear" x1="63.872" y1="257.227" x2="44.64" y2="256.396" gradientUnits="userSpaceOnUse">
<stop/>
<stop offset="1" stop-color="#202020"/>
</linearGradient>
<linearGradient id="paint7_linear" x1="63.872" y1="294.106" x2="44.64" y2="293.274" gradientUnits="userSpaceOnUse">
<stop/>
<stop offset="1" stop-color="#202020"/>
</linearGradient>
<linearGradient id="paint8_linear" x1="63.872" y1="330.984" x2="44.64" y2="330.153" gradientUnits="userSpaceOnUse">
<stop/>
<stop offset="1" stop-color="#202020"/>
</linearGradient>
<linearGradient id="paint9_linear" x1="63.872" y1="367.863" x2="44.64" y2="367.031" gradientUnits="userSpaceOnUse">
<stop/>
<stop offset="1" stop-color="#202020"/>
</linearGradient>
<linearGradient id="paint10_linear" x1="29.3881" y1="66.3812" x2="29.3881" y2="76.3088" gradientUnits="userSpaceOnUse">
<stop stop-color="#090909"/>
<stop offset="1" stop-color="#171717"/>
</linearGradient>
<linearGradient id="paint11_linear" x1="28.8578" y1="76.2155" x2="28.8578" y2="86.0497" gradientUnits="userSpaceOnUse">
<stop stop-color="#090909"/>
<stop offset="1" stop-color="#171717"/>
</linearGradient>
<linearGradient id="paint12_linear" x1="29.3881" y1="29.5028" x2="29.3881" y2="39.4304" gradientUnits="userSpaceOnUse">
<stop stop-color="#090909"/>
<stop offset="1" stop-color="#171717"/>
</linearGradient>
<linearGradient id="paint13_linear" x1="28.8578" y1="39.337" x2="28.8578" y2="49.1713" gradientUnits="userSpaceOnUse">
<stop stop-color="#090909"/>
<stop offset="1" stop-color="#171717"/>
</linearGradient>
<linearGradient id="paint14_linear" x1="29.3881" y1="103.26" x2="29.3881" y2="113.187" gradientUnits="userSpaceOnUse">
<stop stop-color="#090909"/>
<stop offset="1" stop-color="#171717"/>
</linearGradient>
<linearGradient id="paint15_linear" x1="28.8578" y1="113.094" x2="28.8578" y2="122.928" gradientUnits="userSpaceOnUse">
<stop stop-color="#090909"/>
<stop offset="1" stop-color="#171717"/>
</linearGradient>
<linearGradient id="paint16_linear" x1="29.3881" y1="140.138" x2="29.3881" y2="150.066" gradientUnits="userSpaceOnUse">
<stop stop-color="#090909"/>
<stop offset="1" stop-color="#171717"/>
</linearGradient>
<linearGradient id="paint17_linear" x1="28.8578" y1="149.972" x2="28.8578" y2="159.807" gradientUnits="userSpaceOnUse">
<stop stop-color="#090909"/>
<stop offset="1" stop-color="#171717"/>
</linearGradient>
<linearGradient id="paint18_linear" x1="29.3881" y1="177.017" x2="29.3881" y2="186.944" gradientUnits="userSpaceOnUse">
<stop stop-color="#090909"/>
<stop offset="1" stop-color="#171717"/>
</linearGradient>
<linearGradient id="paint19_linear" x1="28.8578" y1="186.851" x2="28.8578" y2="196.685" gradientUnits="userSpaceOnUse">
<stop stop-color="#090909"/>
<stop offset="1" stop-color="#171717"/>
</linearGradient>
<linearGradient id="paint20_linear" x1="29.3881" y1="213.895" x2="29.3881" y2="223.823" gradientUnits="userSpaceOnUse">
<stop stop-color="#090909"/>
<stop offset="1" stop-color="#171717"/>
</linearGradient>
<linearGradient id="paint21_linear" x1="28.8578" y1="223.729" x2="28.8578" y2="233.564" gradientUnits="userSpaceOnUse">
<stop stop-color="#090909"/>
<stop offset="1" stop-color="#171717"/>
</linearGradient>
<linearGradient id="paint22_linear" x1="29.3881" y1="250.773" x2="29.3881" y2="260.701" gradientUnits="userSpaceOnUse">
<stop stop-color="#090909"/>
<stop offset="1" stop-color="#171717"/>
</linearGradient>
<linearGradient id="paint23_linear" x1="28.8578" y1="260.608" x2="28.8578" y2="270.442" gradientUnits="userSpaceOnUse">
<stop stop-color="#090909"/>
<stop offset="1" stop-color="#171717"/>
</linearGradient>
<linearGradient id="paint24_linear" x1="29.3881" y1="287.652" x2="29.3881" y2="297.58" gradientUnits="userSpaceOnUse">
<stop stop-color="#090909"/>
<stop offset="1" stop-color="#171717"/>
</linearGradient>
<linearGradient id="paint25_linear" x1="28.8578" y1="297.486" x2="28.8578" y2="307.32" gradientUnits="userSpaceOnUse">
<stop stop-color="#090909"/>
<stop offset="1" stop-color="#171717"/>
</linearGradient>
<linearGradient id="paint26_linear" x1="29.3881" y1="324.53" x2="29.3881" y2="334.458" gradientUnits="userSpaceOnUse">
<stop stop-color="#090909"/>
<stop offset="1" stop-color="#171717"/>
</linearGradient>
<linearGradient id="paint27_linear" x1="28.8578" y1="334.365" x2="28.8578" y2="344.199" gradientUnits="userSpaceOnUse">
<stop stop-color="#090909"/>
<stop offset="1" stop-color="#171717"/>
</linearGradient>
<linearGradient id="paint28_linear" x1="29.3881" y1="361.409" x2="29.3881" y2="371.336" gradientUnits="userSpaceOnUse">
<stop stop-color="#090909"/>
<stop offset="1" stop-color="#171717"/>
</linearGradient>
<linearGradient id="paint29_linear" x1="28.8578" y1="371.243" x2="28.8578" y2="381.077" gradientUnits="userSpaceOnUse">
<stop stop-color="#090909"/>
<stop offset="1" stop-color="#171717"/>
</linearGradient>
<linearGradient id="paint30_linear" x1="63.872" y1="404.741" x2="44.64" y2="403.909" gradientUnits="userSpaceOnUse">
<stop/>
<stop offset="1" stop-color="#202020"/>
</linearGradient>
<linearGradient id="paint31_linear" x1="29.3881" y1="398.287" x2="29.3881" y2="408.215" gradientUnits="userSpaceOnUse">
<stop stop-color="#090909"/>
<stop offset="1" stop-color="#171717"/>
</linearGradient>
<linearGradient id="paint32_linear" x1="28.8578" y1="408.122" x2="28.8578" y2="417.956" gradientUnits="userSpaceOnUse">
<stop stop-color="#090909"/>
<stop offset="1" stop-color="#171717"/>
</linearGradient>
<linearGradient id="paint33_linear" x1="63.872" y1="441.829" x2="44.64" y2="440.998" gradientUnits="userSpaceOnUse">
<stop/>
<stop offset="1" stop-color="#202020"/>
</linearGradient>
<linearGradient id="paint34_linear" x1="29.3881" y1="435.376" x2="29.3881" y2="445.303" gradientUnits="userSpaceOnUse">
<stop stop-color="#090909"/>
<stop offset="1" stop-color="#171717"/>
</linearGradient>
<linearGradient id="paint35_linear" x1="28.8578" y1="445.21" x2="28.8578" y2="455.044" gradientUnits="userSpaceOnUse">
<stop stop-color="#090909"/>
<stop offset="1" stop-color="#171717"/>
</linearGradient>
</defs>
</svg>
