<svg width="290" height="537" viewBox="0 0 290 537" fill="none" xmlns="http://www.w3.org/2000/svg">
<path d="M68.6802 452.639C129.453 355.694 126.108 292.815 130.256 172.293L408.529 137.657L463 472.177C329.807 426.656 182.348 403.341 68.6802 452.639Z" fill="#342218"/>
<path d="M68.6802 452.639C129.453 355.694 126.108 292.815 130.256 172.293L408.529 137.657L463 472.177C329.807 426.656 182.348 403.341 68.6802 452.639Z" fill="url(#paint0_linear)"/>
<path d="M289.227 500.596L250.15 491.123C250.308 457.724 246.975 435.836 233.276 389.583L338.369 404.977C308.721 441.895 296.832 462.78 289.227 500.596Z" fill="#C29B78"/>
<path d="M244.822 433.1L238.901 408.529L326.231 420.371C311.47 440.072 305.7 450.999 297.22 470.401L244.822 433.1Z" fill="#B58F6E"/>
<path d="M291.299 432.212C227.356 432.212 162.82 339.849 150.386 215.514C150.386 105.318 154.827 26.6432 276.497 26.6432C398.168 26.6432 396.984 52.6945 408.529 162.82C420.075 272.945 355.243 432.212 291.299 432.212Z" fill="#C29B78"/>
<path d="M0 688.579L301.957 574.014L304.325 503.261L203.673 470.105C164.317 455.883 91.939 572.543 0 688.579Z" fill="#BD1515"/>
<ellipse cx="224.987" cy="199.824" rx="42.0371" ry="39.9648" fill="#302E2E" fill-opacity="0.3"/>
<path d="M173.773 138.545C197.592 124.822 267.616 141.801 267.616 141.801C267.616 141.801 237.994 119.284 216.106 122.855C192.458 128.691 184.123 132.164 173.773 138.545Z" fill="#291B13"/>
<ellipse cx="225.875" cy="207.225" rx="42.0371" ry="39.9648" fill="url(#paint1_linear)"/>
<path d="M223.803 211.538C223.803 215.042 220.622 217.882 216.698 217.882C212.774 217.882 209.593 215.042 209.593 211.538C209.593 208.034 212.774 204.265 216.698 204.265C220.622 204.265 223.803 206.741 223.803 211.538Z" fill="black"/>
<path d="M229.724 211.666C229.724 218.369 223.759 223.803 216.402 223.803C209.045 223.803 203.081 218.369 203.081 211.666C203.081 204.962 209.045 197.752 216.402 197.752C223.759 197.752 229.724 202.488 229.724 211.666Z" fill="url(#paint2_linear)"/>
<path d="M223.803 200.127C223.803 202.412 221.683 204.265 219.067 204.265C216.451 204.265 214.33 202.412 214.33 200.127C214.33 197.842 216.451 195.384 219.067 195.384C221.683 195.384 223.803 196.998 223.803 200.127Z" fill="white"/>
<path d="M211.962 202.341C211.962 205.692 208.913 208.409 205.153 208.409C201.393 208.409 198.344 205.692 198.344 202.341C198.344 198.989 201.393 195.384 205.153 195.384C208.913 195.384 211.962 197.752 211.962 202.341Z" fill="white"/>
<path d="M223.803 211.538C223.803 215.042 220.622 217.882 216.698 217.882C212.774 217.882 209.593 215.042 209.593 211.538C209.593 208.034 212.774 204.265 216.698 204.265C220.622 204.265 223.803 206.741 223.803 211.538Z" fill="url(#paint3_linear)"/>
<path d="M266.136 355.539C276.794 370.045 288.931 368.861 298.7 357.611C285.96 358.691 279.311 357.412 266.136 355.539Z" fill="url(#paint4_linear)"/>
<path d="M277.977 349.914C273.182 352.937 270.092 353.703 264.656 355.243C278.664 359.808 286.509 360.956 300.476 357.611C295.349 355.533 292.496 353.92 287.451 349.914C286.438 352.127 285.694 351.838 283.602 353.763C281.308 351.963 280.071 352.294 277.977 349.914Z" fill="url(#paint5_linear)"/>
<path d="M393.727 137.953C347.155 127.003 321.688 116.375 278.273 83.4822L317.054 60.3914L393.727 137.953Z" fill="#B58F6E"/>
<path d="M312.91 71.6425C178.978 145.892 95.7952 223.82 77.5615 309.655C108.349 52.6961 185.139 -52.4414 320.015 24.8688C359.552 -10.1425 390.183 42.9037 447.31 144.171C390.826 142.207 361.071 133.403 312.91 71.6425Z" fill="#342218"/>
<path d="M269.985 298.926C269.985 298.926 271.43 294.852 283.356 294.852C295.282 294.852 297.812 298.926 297.812 298.926C297.812 311.15 269.985 310.568 269.985 298.926Z" fill="url(#paint6_linear)"/>
<defs>
<linearGradient id="paint0_linear" x1="265.84" y1="137.657" x2="265.84" y2="409.121" gradientUnits="userSpaceOnUse">
<stop offset="0.475956" stop-color="#291B13"/>
<stop offset="1" stop-color="#291B13" stop-opacity="0"/>
</linearGradient>
<linearGradient id="paint1_linear" x1="225.875" y1="167.26" x2="225.875" y2="247.19" gradientUnits="userSpaceOnUse">
<stop stop-color="white"/>
<stop offset="1" stop-color="#F1F1F1"/>
</linearGradient>
<linearGradient id="paint2_linear" x1="216.402" y1="197.752" x2="216.402" y2="223.803" gradientUnits="userSpaceOnUse">
<stop stop-color="#212230"/>
<stop offset="1" stop-color="#21302D"/>
</linearGradient>
<linearGradient id="paint3_linear" x1="216.698" y1="204.265" x2="216.698" y2="217.882" gradientUnits="userSpaceOnUse">
<stop stop-color="#353535"/>
<stop offset="1" stop-opacity="0"/>
</linearGradient>
<linearGradient id="paint4_linear" x1="282.122" y1="358.795" x2="282.122" y2="366.681" gradientUnits="userSpaceOnUse">
<stop stop-color="#B42626"/>
<stop offset="1" stop-color="#CC3A3A"/>
</linearGradient>
<linearGradient id="paint5_linear" x1="282.566" y1="349.914" x2="282.566" y2="359.538" gradientUnits="userSpaceOnUse">
<stop stop-color="#CC3A3A"/>
<stop offset="1" stop-color="#B42626"/>
</linearGradient>
<linearGradient id="paint6_linear" x1="283.899" y1="294.852" x2="283.899" y2="307.877" gradientUnits="userSpaceOnUse">
<stop stop-color="#C29B78" stop-opacity="0"/>
<stop offset="1" stop-color="#A67F5B"/>
</linearGradient>
</defs>
</svg>
